<svg xmlns="http://www.w3.org/2000/svg" width="1080" height="1920" viewBox="0 0 1080 1920"><defs>
<radialGradient id="paper" cx="50%" cy="42%" r="78%">
<stop offset="0" stop-color="#F1E4C6"/><stop offset="0.62" stop-color="#F1E4C6"/><stop offset="1" stop-color="#E4D0A4"/>
</radialGradient>
<linearGradient id="sheet" x1="0" y1="0" x2="0" y2="1">
<stop offset="0" stop-color="#E4D0A4"/><stop offset="0.06" stop-color="#F1E4C6"/><stop offset="0.94" stop-color="#F1E4C6"/><stop offset="1" stop-color="#E4D0A4"/>
</linearGradient>
<linearGradient id="rod" x1="0" y1="0" x2="0" y2="1">
<stop offset="0" stop-color="#7A4E17"/><stop offset="0.45" stop-color="#3F2B1A"/><stop offset="1" stop-color="#3F2B1A"/>
</linearGradient>
<radialGradient id="wax" cx="40%" cy="36%" r="70%">
<stop offset="0" stop-color="#8E2A22"/><stop offset="1" stop-color="#3F2B1A"/>
</radialGradient>
<radialGradient id="lit" cx="38%" cy="34%" r="72%">
<stop offset="0" stop-color="#D9B45A"/><stop offset="1" stop-color="#B8892E"/>
</radialGradient>
<filter id="grain" x="0" y="0" width="100%" height="100%">
<feTurbulence type="fractalNoise" baseFrequency="0.85" numOctaves="2" seed="7"/>
<feColorMatrix type="matrix" values="0 0 0 0 0.36 0 0 0 0 0.26 0 0 0 0 0.16 1.1 0 0 0 -0.42"/>
</filter>
<filter id="stain" x="0" y="0" width="100%" height="100%">
<feTurbulence type="fractalNoise" baseFrequency="0.004 0.006" numOctaves="3" seed="11"/>
<feColorMatrix type="matrix" values="0 0 0 0 0.48 0 0 0 0 0.31 0 0 0 0 0.09 1.6 0 0 0 -0.78"/>
</filter>
<filter id="soft" x="-20%" y="-20%" width="140%" height="140%"><feGaussianBlur stdDeviation="12"/></filter>
</defs><rect width="1080" height="1920" fill="url(#paper)"/>
<rect width="1080" height="1920" filter="url(#stain)" opacity="0.38"/>
<rect width="1080" height="1920" filter="url(#grain)" opacity="0.10"/><rect x="48" y="104" width="984" height="1748" fill="none" stroke="#B8892E" stroke-width="2" opacity="0.8"/><rect x="58" y="114" width="964" height="1728" fill="none" stroke="#C9AE7C" stroke-width="1.2"/><g transform="translate(40 96) scale(1 1)" fill="none" stroke="#B8892E" stroke-width="2.5" stroke-linecap="round"><path d="M0 64 L0 0 L64 0"/><path d="M14 58 L14 14 L58 14" stroke-width="1.5"/><path d="M24 24 q20 2 30 18" /><path d="M24 24 q2 20 18 30"/><rect x="-7" y="-7" width="14" height="14" transform="rotate(45)" fill="#B8892E" stroke="none"/></g><g transform="translate(1040 96) scale(-1 1)" fill="none" stroke="#B8892E" stroke-width="2.5" stroke-linecap="round"><path d="M0 64 L0 0 L64 0"/><path d="M14 58 L14 14 L58 14" stroke-width="1.5"/><path d="M24 24 q20 2 30 18" /><path d="M24 24 q2 20 18 30"/><rect x="-7" y="-7" width="14" height="14" transform="rotate(45)" fill="#B8892E" stroke="none"/></g><g transform="translate(40 1860) scale(1 -1)" fill="none" stroke="#B8892E" stroke-width="2.5" stroke-linecap="round"><path d="M0 64 L0 0 L64 0"/><path d="M14 58 L14 14 L58 14" stroke-width="1.5"/><path d="M24 24 q20 2 30 18" /><path d="M24 24 q2 20 18 30"/><rect x="-7" y="-7" width="14" height="14" transform="rotate(45)" fill="#B8892E" stroke="none"/></g><g transform="translate(1040 1860) scale(-1 -1)" fill="none" stroke="#B8892E" stroke-width="2.5" stroke-linecap="round"><path d="M0 64 L0 0 L64 0"/><path d="M14 58 L14 14 L58 14" stroke-width="1.5"/><path d="M24 24 q20 2 30 18" /><path d="M24 24 q2 20 18 30"/><rect x="-7" y="-7" width="14" height="14" transform="rotate(45)" fill="#B8892E" stroke="none"/></g><text x="96" y="178" font-family="'Cinzel', 'Noto Serif SC', serif" font-size="24" font-weight="700" fill="#7A4E17" text-anchor="start" letter-spacing="4">JOURNEY · III</text><line x1="96" y1="198" x2="460" y2="198" stroke="#B8892E" stroke-width="2"/><rect x="453" y="191" width="14" height="14" transform="rotate(45 460 198)" fill="#B8892E"/><text x="96" y="262" font-family="'Noto Serif SC', serif" font-size="56" font-weight="700" fill="#2E1F12" text-anchor="start">一匹丝绸的西行路</text><rect x="104" y="330" width="880" height="1324" fill="#3F2B1A" opacity="0.22" filter="url(#soft)"/><path d="M108 316 H972 L984 328 V1628 L972 1640 H108 L96 1628 V328 Z" fill="#F1E4C6" stroke="#7A4E17" stroke-width="2.5"/><rect x="96" y="316" width="888" height="1324" filter="url(#grain)" opacity="0.08"/><path d="M118 330 H962 L970 338 V1618 L962 1626 H118 L110 1618 V338 Z" fill="none" stroke="#C9AE7C" stroke-width="1.2"/><g opacity="0.55"><circle cx="880" cy="412" r="46" fill="none" stroke="#B8892E" stroke-width="2"/><circle cx="880" cy="412" r="36" fill="none" stroke="#C9AE7C" stroke-width="1.2"/><path d="M880 370 L892 412 L880 454 L868 412 Z" fill="#7A4E17"/><path d="M838 412 L880 422 L922 412 L880 402 Z" fill="#B8892E"/><text x="880" y="354" font-family="'Cinzel', 'Noto Serif SC', serif" font-size="24" font-weight="700" fill="#7A4E17" text-anchor="middle">N</text></g><g fill="none" stroke="#C9AE7C" stroke-width="2.5" stroke-linejoin="round"><path d="M150 587 l20 -30 l20 30"/><path d="M164 567 l6 8" /><path d="M188 587 l20 -30 l20 30"/><path d="M202 567 l6 8" /></g><g fill="none" stroke="#C9AE7C" stroke-width="2.5" stroke-linejoin="round"><path d="M300 1054 l20 -30 l20 30"/><path d="M314 1034 l6 8" /><path d="M338 1054 l20 -30 l20 30"/><path d="M352 1034 l6 8" /></g><g fill="none" stroke="#C9AE7C" stroke-width="2.5" stroke-linejoin="round"><path d="M140 1287 l20 -30 l20 30"/><path d="M154 1267 l6 8" /><path d="M178 1287 l20 -30 l20 30"/><path d="M192 1267 l6 8" /></g><path d="M190 456 C190 584 360 562 360 690" fill="none" stroke="#2E1F12" stroke-width="5" stroke-linecap="round"/><path d="M360 690 C360 818 200 795 200 923" fill="none" stroke="#2E1F12" stroke-width="5" stroke-linecap="round"/><path d="M200 923 C200 1051 370 1028 370 1156" fill="none" stroke="#7A4E17" stroke-width="4" stroke-dasharray="4 14" stroke-linecap="round"/><path d="M370 1156 C370 1284 220 1262 220 1390" fill="none" stroke="#7A4E17" stroke-width="4" stroke-dasharray="4 14" stroke-linecap="round"/><line x1="238" y1="456" x2="446" y2="456" stroke="#C9AE7C" stroke-width="2" stroke-dasharray="2 8" stroke-linecap="round"/><circle cx="190" cy="456" r="26" fill="url(#lit)" stroke="#7A4E17" stroke-width="3"/><circle cx="190" cy="456" r="9" fill="#7A4E17"/><text x="470" y="460" font-family="'Cinzel', 'Noto Serif SC', serif" font-size="26" font-weight="700" fill="#7A4E17" text-anchor="start">I</text><text x="532" y="460" font-family="'Noto Serif SC', serif" font-size="34" font-weight="700" fill="#2E1F12" text-anchor="start">长安</text><text x="532" y="500" font-family="'Noto Serif SC', serif" font-size="26" font-weight="400" fill="#5C4330" text-anchor="start">丝绸装箱启程</text><line x1="408" y1="690" x2="446" y2="690" stroke="#C9AE7C" stroke-width="2" stroke-dasharray="2 8" stroke-linecap="round"/><circle cx="360" cy="690" r="26" fill="url(#lit)" stroke="#7A4E17" stroke-width="3"/><circle cx="360" cy="690" r="9" fill="#7A4E17"/><text x="470" y="694" font-family="'Cinzel', 'Noto Serif SC', serif" font-size="26" font-weight="700" fill="#7A4E17" text-anchor="start">II</text><text x="532" y="694" font-family="'Noto Serif SC', serif" font-size="34" font-weight="700" fill="#2E1F12" text-anchor="start">敦煌</text><text x="532" y="734" font-family="'Noto Serif SC', serif" font-size="26" font-weight="400" fill="#5C4330" text-anchor="start">补给，换一批骆驼</text><line x1="248" y1="923" x2="446" y2="923" stroke="#C9AE7C" stroke-width="2" stroke-dasharray="2 8" stroke-linecap="round"/><circle cx="200" cy="923" r="40" fill="none" stroke="#B8892E" stroke-width="2" stroke-dasharray="4 6"/><circle cx="200" cy="923" r="26" fill="url(#lit)" stroke="#7A4E17" stroke-width="3"/><path d="M200 911 L210 923 L200 935 L190 923 Z" fill="#3F2B1A"/><text x="470" y="927" font-family="'Cinzel', 'Noto Serif SC', serif" font-size="26" font-weight="700" fill="#7A4E17" text-anchor="start">III</text><text x="532" y="927" font-family="'Noto Serif SC', serif" font-size="36" font-weight="700" fill="#2E1F12" text-anchor="start">撒马尔罕</text><text x="532" y="967" font-family="'Noto Serif SC', serif" font-size="26" font-weight="400" fill="#5C4330" text-anchor="start">粟特商人接手转卖</text><line x1="418" y1="1156" x2="446" y2="1156" stroke="#C9AE7C" stroke-width="2" stroke-dasharray="2 8" stroke-linecap="round"/><circle cx="370" cy="1156" r="24" fill="#F1E4C6" stroke="#5C4330" stroke-width="3"/><circle cx="370" cy="1156" r="7" fill="#5C4330"/><text x="470" y="1160" font-family="'Cinzel', 'Noto Serif SC', serif" font-size="26" font-weight="700" fill="#7A4E17" text-anchor="start">IV</text><text x="532" y="1160" font-family="'Noto Serif SC', serif" font-size="34" font-weight="700" fill="#5C4330" text-anchor="start">巴格达</text><text x="532" y="1200" font-family="'Noto Serif SC', serif" font-size="26" font-weight="400" fill="#5C4330" text-anchor="start">换成金币结算</text><line x1="268" y1="1390" x2="446" y2="1390" stroke="#C9AE7C" stroke-width="2" stroke-dasharray="2 8" stroke-linecap="round"/><ellipse cx="226" cy="1400" rx="34" ry="30.6" fill="#3F2B1A" opacity="0.28" filter="url(#soft)"/><polygon points="256.4,1390.0 251.3,1401.4 246.8,1412.5 238.2,1421.5 225.8,1422.8 213.9,1424.5 201.8,1421.5 194.5,1411.4 187.1,1402.0 183.6,1390.0 188.7,1378.6 193.2,1367.5 201.8,1358.5 214.2,1357.2 226.1,1355.5 238.2,1358.5 245.5,1368.6 252.9,1378.0" fill="url(#wax)" stroke="#3F2B1A" stroke-width="1.5" stroke-linejoin="round"/><circle cx="220" cy="1390" r="23.8" fill="none" stroke="#3F2B1A" stroke-width="3" opacity="0.55"/><circle cx="220" cy="1390" r="18.8" fill="none" stroke="#D9B45A" stroke-width="1.2" opacity="0.5"/><text x="220" y="1398.84" font-family="'Noto Serif SC', serif" font-size="24" font-weight="700" fill="#F1E4C6" text-anchor="middle" opacity="0.9">终</text><text x="470" y="1394" font-family="'Cinzel', 'Noto Serif SC', serif" font-size="26" font-weight="700" fill="#8E2A22" text-anchor="start">V</text><text x="532" y="1394" font-family="'Noto Serif SC', serif" font-size="34" font-weight="700" fill="#2E1F12" text-anchor="start">君士坦丁堡</text><text x="532" y="1434" font-family="'Noto Serif SC', serif" font-size="26" font-weight="700" fill="#8E2A22" text-anchor="start">售价翻了十倍</text><path d="M450 879 H770" stroke="#B8892E" stroke-width="1.5"/><text x="770" y="867" font-family="'Noto Serif SC', serif" font-size="24" font-weight="700" fill="#7A4E17" text-anchor="end">当前位置</text><g stroke="#C9AE7C" stroke-width="2" fill="none"><line x1="240" y1="1544" x2="518" y2="1544"/><line x1="562" y1="1544" x2="840" y2="1544"/><circle cx="240" cy="1544" r="3" fill="#C9AE7C"/><circle cx="840" cy="1544" r="3" fill="#C9AE7C"/><rect x="531" y="1535" width="18" height="18" transform="rotate(45 540 1544)" fill="#C9AE7C"/><rect x="523" y="1527" width="34" height="34" transform="rotate(45 540 1544)"/></g><text x="540" y="1592" font-family="'Noto Serif SC', serif" font-size="28" font-weight="400" fill="#2E1F12" text-anchor="middle">全程约七千公里，走完一趟要一年以上</text></svg>
