<svg xmlns="http://www.w3.org/2000/svg" width="1080" height="1440" viewBox="0 0 1080 1440"><defs>
<radialGradient id="paper" cx="50%" cy="42%" r="78%">
<stop offset="0" stop-color="#F1E4C6"/><stop offset="0.62" stop-color="#F1E4C6"/><stop offset="1" stop-color="#E4D0A4"/>
</radialGradient>
<linearGradient id="sheet" x1="0" y1="0" x2="0" y2="1">
<stop offset="0" stop-color="#E4D0A4"/><stop offset="0.06" stop-color="#F1E4C6"/><stop offset="0.94" stop-color="#F1E4C6"/><stop offset="1" stop-color="#E4D0A4"/>
</linearGradient>
<linearGradient id="rod" x1="0" y1="0" x2="0" y2="1">
<stop offset="0" stop-color="#7A4E17"/><stop offset="0.45" stop-color="#3F2B1A"/><stop offset="1" stop-color="#3F2B1A"/>
</linearGradient>
<radialGradient id="wax" cx="40%" cy="36%" r="70%">
<stop offset="0" stop-color="#8E2A22"/><stop offset="1" stop-color="#3F2B1A"/>
</radialGradient>
<radialGradient id="lit" cx="38%" cy="34%" r="72%">
<stop offset="0" stop-color="#D9B45A"/><stop offset="1" stop-color="#B8892E"/>
</radialGradient>
<filter id="grain" x="0" y="0" width="100%" height="100%">
<feTurbulence type="fractalNoise" baseFrequency="0.85" numOctaves="2" seed="7"/>
<feColorMatrix type="matrix" values="0 0 0 0 0.36 0 0 0 0 0.26 0 0 0 0 0.16 1.1 0 0 0 -0.42"/>
</filter>
<filter id="stain" x="0" y="0" width="100%" height="100%">
<feTurbulence type="fractalNoise" baseFrequency="0.004 0.006" numOctaves="3" seed="11"/>
<feColorMatrix type="matrix" values="0 0 0 0 0.48 0 0 0 0 0.31 0 0 0 0 0.09 1.6 0 0 0 -0.78"/>
</filter>
<filter id="soft" x="-20%" y="-20%" width="140%" height="140%"><feGaussianBlur stdDeviation="12"/></filter>
</defs><rect width="1080" height="1440" fill="url(#paper)"/>
<rect width="1080" height="1440" filter="url(#stain)" opacity="0.38"/>
<rect width="1080" height="1440" filter="url(#grain)" opacity="0.10"/><rect x="48" y="104" width="984" height="1268" fill="none" stroke="#B8892E" stroke-width="2" opacity="0.8"/><rect x="58" y="114" width="964" height="1248" fill="none" stroke="#C9AE7C" stroke-width="1.2"/><g transform="translate(40 96) scale(1 1)" fill="none" stroke="#B8892E" stroke-width="2.5" stroke-linecap="round"><path d="M0 64 L0 0 L64 0"/><path d="M14 58 L14 14 L58 14" stroke-width="1.5"/><path d="M24 24 q20 2 30 18" /><path d="M24 24 q2 20 18 30"/><rect x="-7" y="-7" width="14" height="14" transform="rotate(45)" fill="#B8892E" stroke="none"/></g><g transform="translate(1040 96) scale(-1 1)" fill="none" stroke="#B8892E" stroke-width="2.5" stroke-linecap="round"><path d="M0 64 L0 0 L64 0"/><path d="M14 58 L14 14 L58 14" stroke-width="1.5"/><path d="M24 24 q20 2 30 18" /><path d="M24 24 q2 20 18 30"/><rect x="-7" y="-7" width="14" height="14" transform="rotate(45)" fill="#B8892E" stroke="none"/></g><g transform="translate(40 1380) scale(1 -1)" fill="none" stroke="#B8892E" stroke-width="2.5" stroke-linecap="round"><path d="M0 64 L0 0 L64 0"/><path d="M14 58 L14 14 L58 14" stroke-width="1.5"/><path d="M24 24 q20 2 30 18" /><path d="M24 24 q2 20 18 30"/><rect x="-7" y="-7" width="14" height="14" transform="rotate(45)" fill="#B8892E" stroke="none"/></g><g transform="translate(1040 1380) scale(-1 -1)" fill="none" stroke="#B8892E" stroke-width="2.5" stroke-linecap="round"><path d="M0 64 L0 0 L64 0"/><path d="M14 58 L14 14 L58 14" stroke-width="1.5"/><path d="M24 24 q20 2 30 18" /><path d="M24 24 q2 20 18 30"/><rect x="-7" y="-7" width="14" height="14" transform="rotate(45)" fill="#B8892E" stroke="none"/></g><rect x="160" y="320" width="780" height="790" fill="#3F2B1A" opacity="0.30" filter="url(#soft)"/><rect x="150" y="300" width="780" height="790" fill="url(#sheet)"/><rect x="150" y="300" width="780" height="790" filter="url(#grain)" opacity="0.08"/><rect x="172" y="334" width="736" height="722" fill="none" stroke="#7A4E17" stroke-width="2"/><rect x="180" y="342" width="720" height="706" fill="none" stroke="#C9AE7C" stroke-width="1.2"/><rect x="116" y="280" width="848" height="40" rx="20" fill="url(#rod)"/><rect x="116" y="280" width="848" height="40" rx="20" fill="none" stroke="#B8892E" stroke-width="2"/><circle cx="106" cy="300" r="22" fill="#B8892E" stroke="#7A4E17" stroke-width="3"/><circle cx="974" cy="300" r="22" fill="#B8892E" stroke="#7A4E17" stroke-width="3"/><circle cx="106" cy="300" r="8" fill="#7A4E17"/><circle cx="974" cy="300" r="8" fill="#7A4E17"/><rect x="116" y="1070" width="848" height="40" rx="20" fill="url(#rod)"/><rect x="116" y="1070" width="848" height="40" rx="20" fill="none" stroke="#B8892E" stroke-width="2"/><circle cx="106" cy="1090" r="22" fill="#B8892E" stroke="#7A4E17" stroke-width="3"/><circle cx="974" cy="1090" r="22" fill="#B8892E" stroke="#7A4E17" stroke-width="3"/><circle cx="106" cy="1090" r="8" fill="#7A4E17"/><circle cx="974" cy="1090" r="8" fill="#7A4E17"/><text x="96" y="178" font-family="'Cinzel', 'Noto Serif SC', serif" font-size="24" font-weight="700" fill="#7A4E17" text-anchor="start" letter-spacing="4">QUEST · I</text><line x1="96" y1="198" x2="460" y2="198" stroke="#B8892E" stroke-width="2"/><rect x="453" y="191" width="14" height="14" transform="rotate(45 460 198)" fill="#B8892E"/><path d="M400 370 H620 L600 396 L620 422 H400 L420 396 Z" fill="#8E2A22"/><text x="510" y="406" font-family="'Noto Serif SC', serif" font-size="26" font-weight="700" fill="#F1E4C6" text-anchor="middle">新 任 务</text><text x="510" y="548" font-family="'Noto Serif SC', serif" font-size="104" font-weight="700" fill="#2E1F12" text-anchor="middle">丝绸之路</text><text x="510" y="668" font-family="'Noto Serif SC', serif" font-size="104" font-weight="700" fill="#2E1F12" text-anchor="middle">不只是</text><text x="510" y="788" font-family="'Noto Serif SC', serif" font-size="104" font-weight="700" fill="#7A4E17" text-anchor="middle">一条路</text><g stroke="#B8892E" stroke-width="2" fill="none"><line x1="280" y1="858" x2="488" y2="858"/><line x1="532" y1="858" x2="740" y2="858"/><circle cx="280" cy="858" r="3" fill="#B8892E"/><circle cx="740" cy="858" r="3" fill="#B8892E"/><rect x="501" y="849" width="18" height="18" transform="rotate(45 510 858)" fill="#B8892E"/><rect x="493" y="841" width="34" height="34" transform="rotate(45 510 858)"/></g><text x="510" y="930" font-family="'Noto Serif SC', serif" font-size="32" font-weight="400" fill="#2E1F12" text-anchor="middle">它是上千座驿站织成的一张网</text><text x="510" y="980" font-family="'Noto Serif SC', serif" font-size="26" font-weight="400" fill="#5C4330" text-anchor="middle">货物在每一站换手，而不是一路走到底</text><ellipse cx="842" cy="1008" rx="58" ry="52.2" fill="#3F2B1A" opacity="0.28" filter="url(#soft)"/><polygon points="898.1,998.0 889.4,1017.4 881.8,1036.4 867.0,1051.7 845.9,1054.0 825.6,1056.8 805.0,1051.7 792.5,1034.5 779.9,1018.4 773.9,998.0 782.6,978.6 790.2,959.6 805.0,944.3 826.1,942.0 846.4,939.2 867.0,944.3 879.5,961.5 892.1,977.6" fill="url(#wax)" stroke="#3F2B1A" stroke-width="1.5" stroke-linejoin="round"/><circle cx="836" cy="998" r="40.6" fill="none" stroke="#3F2B1A" stroke-width="3" opacity="0.55"/><circle cx="836" cy="998" r="35.6" fill="none" stroke="#D9B45A" stroke-width="1.2" opacity="0.5"/><text x="836" y="1013.08" font-family="'Noto Serif SC', serif" font-size="41" font-weight="700" fill="#F1E4C6" text-anchor="middle" opacity="0.9">契</text><rect x="96" y="1146" width="16" height="16" transform="rotate(45 104 1154)" fill="#8E2A22"/><text x="128" y="1164" font-family="'Noto Serif SC', serif" font-size="28" font-weight="400" fill="#2E1F12" text-anchor="start">任务目标：看懂一张贸易网络如何运转</text></svg>
