<svg xmlns="http://www.w3.org/2000/svg" width="1920" height="1080" viewBox="0 0 1920 1080">
<rect width="1920" height="1080" fill="#FBFBF8"/>
<path d="M1284.4 957.5 C1426.7 961.2 1573.3 963.4 1728.0 960.1" fill="none" stroke="#ECEEEA" stroke-width="20" stroke-linecap="round" opacity="0.75"/>
<path d="M1278.5 989.7 C1426.7 992.8 1573.3 987.6 1727.1 991.4" fill="none" stroke="#ECEEEA" stroke-width="21" stroke-linecap="round" opacity="0.75"/>
<path d="M148.7 987.8 C270.0 989.7 390.0 988.4 500.2 981.6" fill="none" stroke="#ECEEEA" stroke-width="19" stroke-linecap="round" opacity="0.75"/>
<path d="M160.3 1013.9 C270.0 1012.3 390.0 1013.9 506.8 1014.6" fill="none" stroke="#ECEEEA" stroke-width="15" stroke-linecap="round" opacity="0.75"/>
<text x="160" y="150" font-family="'Xiaolai', 'Noto Sans SC', sans-serif" font-size="32" fill="#596268">费曼学习法 · 四步</text>
<text x="1760" y="150" font-family="'Caveat', 'Xiaolai', sans-serif" font-size="36" fill="#1C5BB8" text-anchor="end">4 steps</text>
<path d="M157.6 177.6 C313.8 177.4 466.0 173.7 618.5 176.0" fill="none" stroke="#C9CED1" stroke-width="3" stroke-linecap="round"/>
<text x="160" y="262" font-family="'Xiaolai', 'Noto Sans SC', sans-serif" font-size="64" fill="#1D2327">四步把知识讲明白</text>
<path d="M158.3 378.9 L516.2 382.6 L513.1 545.1 L162.7 549.4Z" fill="#E3ECF8"/>
<path d="M158.9 378.4 C278.7 380.9 397.3 378.8 513.3 378.6 M514.2 377.9 C514.6 436.0 516.8 492.0 515.6 545.6 M516.9 546.6 C397.3 546.4 278.7 547.7 157.8 547.1 M157.6 545.9 C160.5 492.0 160.8 436.0 160.9 381.9" fill="none" stroke="#1D2327" stroke-width="5" stroke-linecap="round" stroke-linejoin="round"/>
<text x="188" y="460" font-family="'Caveat', 'Xiaolai', sans-serif" font-size="54" fill="#1C5BB8">1</text>
<text x="244" y="456" font-family="'Xiaolai', 'Noto Sans SC', sans-serif" font-size="42" fill="#1D2327">选一个概念</text>
<text x="244" y="512" font-family="'Xiaolai', 'Noto Sans SC', sans-serif" font-size="28" fill="#596268">写在纸的最上方</text>
<path d="M573.7 477.2 L928.4 483.0 L928.8 645.7 L573.0 648.5Z" fill="#E3ECF8"/>
<path d="M575.2 481.1 C693.7 479.1 812.3 477.4 933.0 478.3 M929.0 479.7 C928.4 536.0 928.5 592.0 929.9 646.3 M929.4 647.6 C812.3 648.4 693.7 648.0 576.5 646.7 M575.6 650.1 C575.3 592.0 576.8 536.0 576.3 482.1" fill="none" stroke="#1D2327" stroke-width="5" stroke-linecap="round" stroke-linejoin="round"/>
<text x="603" y="560" font-family="'Caveat', 'Xiaolai', sans-serif" font-size="54" fill="#1C5BB8">2</text>
<text x="659" y="556" font-family="'Xiaolai', 'Noto Sans SC', sans-serif" font-size="42" fill="#1D2327">讲给外行听</text>
<text x="659" y="612" font-family="'Xiaolai', 'Noto Sans SC', sans-serif" font-size="28" fill="#596268">假装对面是小学生</text>
<path d="M990.8 382.7 L1346.6 383.0 L1344.6 550.8 L988.3 550.9Z" fill="#FBFBF8"/>
<path d="M992.0 379.1 C1108.7 378.2 1227.3 380.8 1345.2 377.7 M1345.2 382.8 C1348.5 436.0 1346.6 492.0 1346.4 546.0 M1347.8 549.3 C1227.3 546.7 1108.7 546.9 989.9 550.3 M991.4 546.9 C989.7 492.0 990.5 436.0 989.9 382.6" fill="none" stroke="#1D2327" stroke-width="5" stroke-linecap="round" stroke-linejoin="round"/>
<path d="M1067.2 417.2 L1201.0 420.6 L1329.0 415.3 L1325.6 476.0 L1201.0 471.4 L1075.9 475.8Z" fill="#FFE26A"/>
<text x="1018" y="460" font-family="'Caveat', 'Xiaolai', sans-serif" font-size="54" fill="#1C5BB8">3</text>
<text x="1074" y="456" font-family="'Xiaolai', 'Noto Sans SC', sans-serif" font-size="42" fill="#1D2327">卡住就回去查</text>
<text x="1074" y="512" font-family="'Xiaolai', 'Noto Sans SC', sans-serif" font-size="28" fill="#596268">卡点 = 没懂的地方</text>
<path d="M1403.6 478.3 L1757.1 476.9 L1761.3 650.7 L1402.9 650.3Z" fill="#E3ECF8"/>
<path d="M1404.9 480.2 C1523.7 481.0 1642.3 477.4 1759.8 479.4 M1761.5 480.4 C1760.5 536.0 1761.0 592.0 1759.6 646.0 M1761.2 645.2 C1642.3 649.9 1523.7 649.7 1403.2 645.4 M1403.5 647.7 C1404.2 592.0 1406.7 536.0 1402.7 477.9" fill="none" stroke="#1D2327" stroke-width="5" stroke-linecap="round" stroke-linejoin="round"/>
<text x="1433" y="560" font-family="'Caveat', 'Xiaolai', sans-serif" font-size="54" fill="#1C5BB8">4</text>
<text x="1489" y="556" font-family="'Xiaolai', 'Noto Sans SC', sans-serif" font-size="42" fill="#1D2327">简化并打比方</text>
<text x="1489" y="612" font-family="'Xiaolai', 'Noto Sans SC', sans-serif" font-size="28" fill="#596268">直到一句话能说清</text>
<path d="M486.0 562.0 Q556.0 628.0 563.0 574.0" fill="none" stroke="#1C5BB8" stroke-width="6" stroke-linecap="round"/>
<path d="M570.0 592.7 L563.0 574.0 L551.4 590.3" fill="none" stroke="#1C5BB8" stroke-width="6" stroke-linecap="round" stroke-linejoin="round"/>
<path d="M811.0 464.0 Q921.0 370.0 976.0 436.0" fill="none" stroke="#1C5BB8" stroke-width="6" stroke-linecap="round"/>
<path d="M957.5 428.4 L976.0 436.0 L971.9 416.4" fill="none" stroke="#1C5BB8" stroke-width="6" stroke-linecap="round" stroke-linejoin="round"/>
<path d="M1316.0 562.0 Q1386.0 628.0 1393.0 574.0" fill="none" stroke="#1C5BB8" stroke-width="6" stroke-linecap="round"/>
<path d="M1400.0 592.7 L1393.0 574.0 L1381.4 590.3" fill="none" stroke="#1C5BB8" stroke-width="6" stroke-linecap="round" stroke-linejoin="round"/>
<path d="M482.0 382.0 Q490.1 390.1 497.3 400.9 Q506.3 378.4 525.2 360.4" fill="none" stroke="#23794A" stroke-width="7" stroke-linecap="round" stroke-linejoin="round"/>
<path d="M897.0 482.0 Q905.1 490.1 912.3 500.9 Q921.3 478.4 940.2 460.4" fill="none" stroke="#23794A" stroke-width="7" stroke-linecap="round" stroke-linejoin="round"/>
<path d="M1100.0 564.0 Q970.0 738.0 825.0 664.0" fill="none" stroke="#1C5BB8" stroke-width="5" stroke-linecap="round" stroke-dasharray="14 12"/>
<path d="M845.0 663.7 L825.0 664.0 L836.5 680.4" fill="none" stroke="#1C5BB8" stroke-width="5" stroke-linecap="round" stroke-linejoin="round"/>
<text x="880" y="812" font-family="'Caveat', 'Xiaolai', sans-serif" font-size="40" fill="#1C5BB8">loop</text>
<text x="960" y="812" font-family="'Xiaolai', 'Noto Sans SC', sans-serif" font-size="32" fill="#596268">讲不通，就回到第 2 步</text>
</svg>
