<svg xmlns="http://www.w3.org/2000/svg" width="1080" height="1440" viewBox="0 0 1080 1440">
  <defs>
    <pattern id="dots" width="18" height="18" patternUnits="userSpaceOnUse" patternTransform="rotate(-15)">
      <circle cx="9" cy="9" r="3.6" fill="#2A2A2A"/>
    </pattern>
    <pattern id="dotsRed" width="16" height="16" patternUnits="userSpaceOnUse" patternTransform="rotate(-15)">
      <circle cx="8" cy="8" r="3.2" fill="#9E0F22"/>
    </pattern>
    <linearGradient id="fadeDown" x1="0" y1="0" x2="0" y2="1">
      <stop offset="0" stop-color="#FFFFFF" stop-opacity="1"/>
      <stop offset="1" stop-color="#FFFFFF" stop-opacity="0"/>
    </linearGradient>
    <linearGradient id="fadeUp" x1="0" y1="1" x2="0" y2="0">
      <stop offset="0" stop-color="#FFFFFF" stop-opacity="1"/>
      <stop offset="1" stop-color="#FFFFFF" stop-opacity="0"/>
    </linearGradient>
    <radialGradient id="fadeRad" cx="0.5" cy="0.5" r="0.5">
      <stop offset="0" stop-color="#FFFFFF" stop-opacity="1"/>
      <stop offset="0.55" stop-color="#FFFFFF" stop-opacity="0.8"/>
      <stop offset="1" stop-color="#FFFFFF" stop-opacity="0"/>
    </radialGradient>
    <linearGradient id="fadeMid" x1="0" y1="0" x2="0" y2="1">
      <stop offset="0" stop-color="#FFFFFF" stop-opacity="0"/>
      <stop offset="0.35" stop-color="#FFFFFF" stop-opacity="1"/>
      <stop offset="0.65" stop-color="#FFFFFF" stop-opacity="1"/>
      <stop offset="1" stop-color="#FFFFFF" stop-opacity="0"/>
    </linearGradient>
  </defs>
  <rect width="1080" height="1440" fill="#111111"/>
  <mask id="m1"><rect x="0" y="458" width="1080" height="420" fill="url(#fadeMid)"/></mask>
  <rect x="0" y="458" width="1080" height="420" fill="url(#dots)" mask="url(#m1)"/>
  <g>
    <polygon points="88,118 212,118 196,172 72,172" fill="#FFE14A"/>
    <text x="140" y="158" text-anchor="middle" fill="#111111" font-size="30" font-family="'Bungee', 'Noto Sans SC', sans-serif">02</text>
    <text x="232" y="162" fill="#F4F1EA" font-size="44" font-family="'ZCOOL QingKe HuangYou', 'Noto Sans SC', sans-serif">评级对决</text>
    <text x="992" y="158" text-anchor="end" fill="#B9B4AA" font-size="24" letter-spacing="2" font-family="'Bungee', 'Noto Sans SC', sans-serif">COMPARISON</text>
    <polygon points="88,196 992,188 992,192 88,200" fill="#B9B4AA" opacity="0.5"/>
    <polygon points="88,196 380,192 380,196 88,200" fill="#FFE14A"/>
  </g>
  <text x="88" y="280" fill="#F4F1EA" font-size="64" font-family="'ZCOOL QingKe HuangYou', 'Noto Sans SC', sans-serif">摘抄式 VS 费曼式</text>
  <polygon points="88,318 900,318 900,502 868,534 88,534" fill="#2A2A2A"/>
  <rect x="88" y="318" width="10" height="216" fill="#B9B4AA"/>
  <text x="124" y="378" fill="#B9B4AA" font-size="24" font-family="'Bungee', 'Noto Sans SC', sans-serif">A · COPY</text>
  <text x="124" y="436" fill="#F4F1EA" font-size="40" font-weight="700" font-family="'Noto Sans SC', sans-serif">摘抄式笔记</text>
  <text x="124" y="490" fill="#B9B4AA" font-size="30" font-family="'Noto Sans SC', sans-serif">抄得很全，合上本子就忘。</text>
  <circle cx="784" cy="426" r="78" fill="#B9B4AA"/>
  <circle cx="784" cy="426" r="66" fill="none" stroke="#111111" stroke-width="4"/>
  <text x="784" y="466" text-anchor="middle" fill="#111111" font-size="112" font-family="'Bungee', 'Noto Sans SC', sans-serif">C</text>
  <polygon points="0,668 1080,538 1080,656 0,786" fill="#D8152F"/>
  <text x="540" y="672" text-anchor="middle" fill="#F4F1EA" font-size="92" transform="rotate(-7 540 638)" font-family="'Bungee', 'Noto Sans SC', sans-serif">VS</text>
  <polygon points="784.0,686.0 810.9,735.5 859.0,706.1 857.5,762.5 913.9,761.0 884.5,809.1 934.0,836.0 884.5,862.9 913.9,911.0 857.5,909.5 859.0,965.9 810.9,936.5 784.0,986.0 757.1,936.5 709.0,965.9 710.5,909.5 654.1,911.0 683.5,862.9 634.0,836.0 683.5,809.1 654.1,761.0 710.5,762.5 709.0,706.1 757.1,735.5" fill="#FFE14A"/>
  <polygon points="88,728 900,728 900,912 868,944 88,944" fill="#F4F1EA"/>
  <rect x="88" y="728" width="10" height="216" fill="#FFE14A"/>
  <text x="124" y="788" fill="#6E6A63" font-size="24" font-family="'Bungee', 'Noto Sans SC', sans-serif">B · FEYNMAN</text>
  <text x="124" y="846" fill="#111111" font-size="40" font-weight="700" font-family="'Noto Sans SC', sans-serif">费曼式笔记</text>
  <text x="124" y="900" fill="#6E6A63" font-size="30" font-family="'Noto Sans SC', sans-serif">用自己的话重讲，卡点即盲点。</text>
  <circle cx="784" cy="836" r="84" fill="#111111"/>
  <text x="784" y="880" text-anchor="middle" fill="#FFE14A" font-size="120" font-family="'Bungee', 'Noto Sans SC', sans-serif">S</text>
  <g transform="rotate(-3 88 988)">
    <rect x="88" y="988" width="560" height="92" fill="#9E0F22"/>
    <rect x="98" y="998" width="540" height="72" fill="none" stroke="#F4F1EA" stroke-width="3"/>
    <text x="368" y="1048" text-anchor="middle" fill="#F4F1EA" font-size="36" font-family="'Noto Sans SC', sans-serif" font-weight="900">判定：讲得出来，才算真懂</text>
  </g>
  <g fill="#B9B4AA" opacity="0.55">
    <polygon points="40,1380 40,1332 48,1332 48,1372 88,1372 88,1380"/>
    <polygon points="1040,1380 1040,1332 1032,1332 1032,1372 992,1372 992,1380"/>
  </g>
</svg>
