<svg xmlns="http://www.w3.org/2000/svg" width="1080" height="1440" viewBox="0 0 1080 1440">
  <defs>
    <pattern id="dots" width="18" height="18" patternUnits="userSpaceOnUse" patternTransform="rotate(-15)">
      <circle cx="9" cy="9" r="3.6" fill="#2A2A2A"/>
    </pattern>
    <pattern id="dotsRed" width="16" height="16" patternUnits="userSpaceOnUse" patternTransform="rotate(-15)">
      <circle cx="8" cy="8" r="3.2" fill="#9E0F22"/>
    </pattern>
    <linearGradient id="fadeDown" x1="0" y1="0" x2="0" y2="1">
      <stop offset="0" stop-color="#FFFFFF" stop-opacity="1"/>
      <stop offset="1" stop-color="#FFFFFF" stop-opacity="0"/>
    </linearGradient>
    <linearGradient id="fadeUp" x1="0" y1="1" x2="0" y2="0">
      <stop offset="0" stop-color="#FFFFFF" stop-opacity="1"/>
      <stop offset="1" stop-color="#FFFFFF" stop-opacity="0"/>
    </linearGradient>
    <radialGradient id="fadeRad" cx="0.5" cy="0.5" r="0.5">
      <stop offset="0" stop-color="#FFFFFF" stop-opacity="1"/>
      <stop offset="0.55" stop-color="#FFFFFF" stop-opacity="0.8"/>
      <stop offset="1" stop-color="#FFFFFF" stop-opacity="0"/>
    </radialGradient>
    <linearGradient id="fadeMid" x1="0" y1="0" x2="0" y2="1">
      <stop offset="0" stop-color="#FFFFFF" stop-opacity="0"/>
      <stop offset="0.35" stop-color="#FFFFFF" stop-opacity="1"/>
      <stop offset="0.65" stop-color="#FFFFFF" stop-opacity="1"/>
      <stop offset="1" stop-color="#FFFFFF" stop-opacity="0"/>
    </linearGradient>
  </defs>
  <rect width="1080" height="1440" fill="#111111"/>
  <mask id="m1"><rect x="560" y="270" width="520" height="736" fill="url(#fadeRad)"/></mask>
  <rect x="560" y="270" width="520" height="736" fill="url(#dots)" mask="url(#m1)"/>
  <polygon points="0,1104 1080,874 1080,900 0,1130" fill="#D8152F"/>
  <g>
    <polygon points="88,118 212,118 196,172 72,172" fill="#FFE14A"/>
    <text x="140" y="158" text-anchor="middle" fill="#111111" font-size="30" font-family="'Bungee', 'Noto Sans SC', sans-serif">03</text>
    <text x="232" y="162" fill="#F4F1EA" font-size="44" font-family="'ZCOOL QingKe HuangYou', 'Noto Sans SC', sans-serif">菜单选项</text>
    <text x="992" y="158" text-anchor="end" fill="#B9B4AA" font-size="24" letter-spacing="2" font-family="'Bungee', 'Noto Sans SC', sans-serif">PROCESS</text>
    <polygon points="88,196 992,188 992,192 88,200" fill="#B9B4AA" opacity="0.5"/>
    <polygon points="88,196 380,192 380,196 88,200" fill="#FFE14A"/>
  </g>
  <text x="88" y="296" fill="#F4F1EA" font-size="64" font-family="'ZCOOL QingKe HuangYou', 'Noto Sans SC', sans-serif">费曼笔记 · 四步走</text>
  <polygon points="114,350 740,350 714,470 88,470" fill="#2A2A2A"/>
  <text x="136" y="426" fill="#B9B4AA" font-size="44" font-family="'Bungee', 'Noto Sans SC', sans-serif">01</text>
  <text x="250" y="426" fill="#F4F1EA" font-size="38" font-weight="700" font-family="'Noto Sans SC', sans-serif">选一个概念</text>
  <polygon points="114,494 820,494 794,614 88,614" fill="#FFE14A"/>
  <polygon points="836,528 880,554 836,580" fill="#FFE14A"/>
  <rect x="88" y="620" width="700" height="8" fill="#D8152F"/>
  <text x="136" y="570" fill="#111111" font-size="44" font-family="'Bungee', 'Noto Sans SC', sans-serif">02</text>
  <text x="250" y="570" fill="#111111" font-size="44" font-weight="700" font-family="'Noto Sans SC', sans-serif">讲给外行听</text>
  <polygon points="114,638 740,638 714,758 88,758" fill="#2A2A2A"/>
  <text x="136" y="714" fill="#B9B4AA" font-size="44" font-family="'Bungee', 'Noto Sans SC', sans-serif">03</text>
  <text x="250" y="714" fill="#F4F1EA" font-size="38" font-weight="700" font-family="'Noto Sans SC', sans-serif">标出卡壳处</text>
  <polygon points="114,782 740,782 714,902 88,902" fill="#2A2A2A"/>
  <text x="136" y="858" fill="#B9B4AA" font-size="44" font-family="'Bungee', 'Noto Sans SC', sans-serif">04</text>
  <text x="250" y="858" fill="#F4F1EA" font-size="38" font-weight="700" font-family="'Noto Sans SC', sans-serif">简化后重讲</text>
  <polygon points="88,936 868,936 900,968 900,1144 88,1144" fill="#F4F1EA"/>
  <rect x="88" y="936" width="190" height="48" fill="#111111"/>
  <text x="108" y="972" fill="#FFE14A" font-size="26" font-family="'Bungee', 'Noto Sans SC', sans-serif">STEP 02</text>
  <text x="124" y="1044" fill="#111111" font-size="34" font-weight="700" font-family="'Noto Sans SC', sans-serif">假装对面坐着一个外行，</text>
  <text x="124" y="1098" fill="#6E6A63" font-size="30" font-family="'Noto Sans SC', sans-serif">不用术语，把它从头讲一遍。</text>
  <g fill="#B9B4AA" opacity="0.55">
    <polygon points="40,1380 40,1332 48,1332 48,1372 88,1372 88,1380"/>
    <polygon points="1040,1380 1040,1332 1032,1332 1032,1372 992,1372 992,1380"/>
  </g>
</svg>
