<svg xmlns="http://www.w3.org/2000/svg" width="1920" height="1080" viewBox="0 0 1920 1080">
<defs>
<linearGradient id="sky" x1="0" y1="0" x2="0" y2="1">
<stop offset="0" stop-color="#2A2238"/>
<stop offset="0.36" stop-color="#3A2E50"/>
<stop offset="0.640" stop-color="#4A3B63"/>
<stop offset="0.740" stop-color="#E8A0B4"/>
<stop offset="0.760" stop-color="#4A3B63"/>
<stop offset="1" stop-color="#1E1830"/>
</linearGradient>
<radialGradient id="halo"><stop offset="0" stop-color="#F3C77A" stop-opacity="0.35"/><stop offset="1" stop-color="#F3C77A" stop-opacity="0"/></radialGradient>
<radialGradient id="glow" cx="0.5" cy="1" r="0.7"><stop offset="0" stop-color="#E8A0B4" stop-opacity="0.42"/><stop offset="1" stop-color="#E8A0B4" stop-opacity="0"/></radialGradient>
<linearGradient id="vign" x1="0" y1="0" x2="0" y2="1"><stop offset="0" stop-color="#1E1830" stop-opacity="0.55"/><stop offset="0.22" stop-color="#1E1830" stop-opacity="0"/></linearGradient>
<linearGradient id="vignx" x1="0" y1="0" x2="1" y2="0"><stop offset="0" stop-color="#1E1830" stop-opacity="0.45"/><stop offset="0.12" stop-color="#1E1830" stop-opacity="0"/><stop offset="0.88" stop-color="#1E1830" stop-opacity="0"/><stop offset="1" stop-color="#1E1830" stop-opacity="0.45"/></linearGradient>
</defs>
<rect width="1920" height="1080" fill="url(#sky)"/><circle cx="90" cy="300" r="2" fill="#F6F0FA" opacity="0.7"/><circle cx="430" cy="64" r="1.6" fill="#F6F0FA" opacity="0.5"/><circle cx="620" cy="96" r="2" fill="#F6F0FA" opacity="0.6"/><circle cx="780" cy="240" r="1.4" fill="#F6F0FA" opacity="0.5"/><circle cx="980" cy="150" r="1.8" fill="#F6F0FA" opacity="0.6"/><circle cx="1180" cy="110" r="1.4" fill="#F6F0FA" opacity="0.5"/><circle cx="1320" cy="260" r="1.2" fill="#F6F0FA" opacity="0.4"/><circle cx="1640" cy="150" r="2" fill="#F6F0FA" opacity="0.6"/><circle cx="1820" cy="300" r="1.4" fill="#F6F0FA" opacity="0.5"/><circle cx="260" cy="380" r="1.4" fill="#F6F0FA" opacity="0.4"/><circle cx="1080" cy="330" r="1.2" fill="#F6F0FA" opacity="0.4"/><circle cx="1760" cy="420" r="1.6" fill="#F6F0FA" opacity="0.5"/><circle cx="520" cy="300" r="1.2" fill="#F6F0FA" opacity="0.4"/><circle cx="1640" cy="468" r="104.0" fill="url(#halo)"/><path d="M1640 428 A40 40 0 1 0 1640 508 A28.8 40 0 1 1 1640 428 Z" fill="#F3C77A"/><path d="M1300 530 C 1420 504 1560 512 1680 526 S 1720 500 1920 522 L 1920 540 L 1300 540 Z" fill="#4A3B63" opacity="0.45"/><rect x="0" y="540" width="1920" height="300" fill="url(#glow)"/><path d="M0 800 C 220 690 420 720 620 760 S 1000 670 1260 730 S 1700 750 1920 700 V 1080 H 0 Z" fill="#4A3B63" opacity="0.85"/><g fill="#2A2238"><rect x="40" y="760" width="120" height="80"/><path d="M32 762 L100 728 L168 762 Z"/><rect x="176" y="712" width="84" height="128"/><path d="M168 714 L218 680 L268 714 Z"/><rect x="276" y="748" width="150" height="92"/><path d="M268 750 L351 716 L434 750 Z"/><rect x="442" y="690" width="96" height="150"/><path d="M434 692 L490 658 L546 692 Z"/><rect x="554" y="736" width="130" height="104"/><path d="M546 738 L619 704 L692 738 Z"/><rect x="700" y="676" width="104" height="164"/><path d="M692 678 L752 644 L812 678 Z"/><rect x="820" y="730" width="140" height="110"/><path d="M812 732 L890 698 L968 732 Z"/><rect x="976" y="700" width="90" height="140"/><path d="M968 702 L1021 668 L1074 702 Z"/><rect x="1082" y="744" width="150" height="96"/><path d="M1074 746 L1157 712 L1240 746 Z"/><rect x="1248" y="684" width="100" height="156"/><path d="M1240 686 L1298 652 L1356 686 Z"/><rect x="1364" y="728" width="136" height="112"/><path d="M1356 730 L1432 696 L1508 730 Z"/><rect x="1516" y="704" width="94" height="136"/><path d="M1508 706 L1563 672 L1618 706 Z"/><rect x="1626" y="752" width="150" height="88"/><path d="M1618 754 L1701 720 L1784 754 Z"/><rect x="1792" y="716" width="96" height="124"/><path d="M1784 718 L1840 684 L1896 718 Z"/></g><g fill="#F3C77A" opacity="0.85"><rect x="190" y="742" width="18" height="24" rx="3"/><rect x="224" y="742" width="18" height="24" rx="3" opacity="0.55"/><rect x="456" y="720" width="18" height="24" rx="3"/><rect x="490" y="720" width="18" height="24" rx="3" opacity="0.55"/><rect x="714" y="706" width="18" height="24" rx="3"/><rect x="748" y="706" width="18" height="24" rx="3" opacity="0.55"/><rect x="990" y="730" width="18" height="24" rx="3"/><rect x="1024" y="730" width="18" height="24" rx="3" opacity="0.55"/><rect x="1262" y="714" width="18" height="24" rx="3"/><rect x="1296" y="714" width="18" height="24" rx="3" opacity="0.55"/><rect x="1530" y="734" width="18" height="24" rx="3"/><rect x="1564" y="734" width="18" height="24" rx="3" opacity="0.55"/><rect x="1806" y="746" width="18" height="24" rx="3"/><rect x="1840" y="746" width="18" height="24" rx="3" opacity="0.55"/></g><rect x="0" y="840" width="1920" height="240" fill="#1E1830"/><g fill="#4A3B63" opacity="0.22"><rect x="40" y="840" width="120" height="44"/><rect x="176" y="840" width="84" height="70"/><rect x="276" y="840" width="150" height="51"/><rect x="442" y="840" width="96" height="82"/><rect x="554" y="840" width="130" height="57"/><rect x="700" y="840" width="104" height="90"/><rect x="820" y="840" width="140" height="61"/><rect x="976" y="840" width="90" height="77"/><rect x="1082" y="840" width="150" height="53"/><rect x="1248" y="840" width="100" height="86"/><rect x="1364" y="840" width="136" height="62"/><rect x="1516" y="840" width="94" height="75"/><rect x="1626" y="840" width="150" height="48"/><rect x="1792" y="840" width="96" height="68"/></g><rect x="0" y="840" width="1920" height="3" fill="#E8A0B4" opacity="0.35"/><rect x="160" y="890" width="280" height="3" rx="1.5" fill="#B9A8D6" opacity="0.2"/><rect x="700" y="920" width="340" height="3" rx="1.5" fill="#E8A0B4" opacity="0.2"/><rect x="1300" y="900" width="260" height="3" rx="1.5" fill="#B9A8D6" opacity="0.2"/><rect x="420" y="960" width="200" height="3" rx="1.5" fill="#E8A0B4" opacity="0.2"/><rect x="1040" y="1000" width="300" height="3" rx="1.5" fill="#B9A8D6" opacity="0.2"/><rect x="1560" y="970" width="240" height="3" rx="1.5" fill="#E8A0B4" opacity="0.2"/><rect x="240" y="1030" width="220" height="3" rx="1.5" fill="#B9A8D6" opacity="0.2"/><rect x="1843" y="640" width="6" height="200" fill="#2A2238"/><circle cx="1846" cy="634" r="42" fill="url(#halo)"/><circle cx="1846" cy="634" r="10" fill="#F3C77A"/><rect x="1842" y="858" width="14" height="4" rx="2" fill="#F3C77A" opacity="0.55"/><rect x="1848" y="898" width="12" height="4" rx="2" fill="#F3C77A" opacity="0.45"/><rect x="1842" y="938" width="10" height="4" rx="2" fill="#F3C77A" opacity="0.35"/><rect x="1848" y="978" width="8" height="4" rx="2" fill="#F3C77A" opacity="0.25"/><rect x="160" y="108" width="216" height="44" rx="22" fill="#1E1830" fill-opacity="0.6" stroke="#B9A8D6" stroke-opacity="0.4"/><text x="268" y="138" text-anchor="middle" font-family="'Noto Sans SC', sans-serif" font-size="22" font-weight="600" fill="#B9A8D6" letter-spacing="1">第三章 · 分支</text><text x="1760" y="138" text-anchor="end" font-family="'Noto Sans SC', sans-serif" font-size="22" font-weight="600" fill="#B9A8D6" letter-spacing="3">CHOICE</text><text x="160" y="236" font-family="'LXGW WenKai', 'Noto Sans SC', sans-serif" font-size="56" fill="#F6F0FA">两条路，两种结局</text><rect x="160" y="280" width="780" height="104" rx="14" fill="#3A2E50" fill-opacity="0.94" stroke="#F3C77A" stroke-width="2.5"/><path d="M184 332 l12 -12 l12 12 l-12 12 Z" fill="#F3C77A"/><text x="226" y="342" font-family="'Noto Sans SC', sans-serif" font-size="26" font-weight="700" fill="#F3C77A">A</text><text x="270" y="344" font-family="'LXGW WenKai', 'Noto Sans SC', sans-serif" font-size="36" fill="#F6F0FA">先写最容易的一小段</text><text x="910" y="340" text-anchor="end" font-family="'Noto Sans SC', sans-serif" font-size="22" font-weight="700" fill="#F3C77A">已选择</text><text x="184" y="440" font-family="'LXGW WenKai', 'Noto Sans SC', sans-serif" font-size="32" fill="#7FD1C0">→ 情绪先被安抚，行动自然接上</text><rect x="980" y="280" width="780" height="104" rx="14" fill="#3A2E50" fill-opacity="0.94" stroke="#B9A8D6" stroke-opacity="0.35" stroke-width="1.5"/><text x="1046" y="342" font-family="'Noto Sans SC', sans-serif" font-size="26" font-weight="700" fill="#B9A8D6">B</text><text x="1090" y="344" font-family="'LXGW WenKai', 'Noto Sans SC', sans-serif" font-size="36" fill="#B9A8D6">等状态好了再一口气写完</text><text x="1004" y="440" font-family="'LXGW WenKai', 'Noto Sans SC', sans-serif" font-size="32" fill="#E88A8A">→ 等待本身在加重焦虑</text><rect x="184" y="476" width="150" height="40" rx="20" fill="#7FD1C0" fill-opacity="0.16" stroke="#7FD1C0" stroke-opacity="0.6"/><circle cx="208" cy="496" r="6" fill="#7FD1C0"/><text x="224" y="504" font-family="'Noto Sans SC', sans-serif" font-size="22" font-weight="600" fill="#7FD1C0">好结局</text><rect x="1004" y="476" width="150" height="40" rx="20" fill="#E88A8A" fill-opacity="0.14" stroke="#E88A8A" stroke-opacity="0.6"/><circle cx="1028" cy="496" r="6" fill="#E88A8A"/><text x="1044" y="504" font-family="'Noto Sans SC', sans-serif" font-size="22" font-weight="600" fill="#E88A8A">坏结局</text><path d="M960 292 V 500" stroke="#B9A8D6" stroke-opacity="0.3" stroke-width="2" stroke-dasharray="6 10"/><g><rect x="120" y="600" width="1680" height="216" rx="28" fill="#1E1830" fill-opacity="0.86" stroke="#B9A8D6" stroke-opacity="0.35" stroke-width="1.5"/><rect x="132" y="612" width="1656" height="192" rx="20" fill="none" stroke="#B9A8D6" stroke-opacity="0.14" stroke-width="1"/><rect x="160" y="574" width="100" height="46" rx="23" fill="#E8A0B4"/><text x="210" y="606" text-anchor="middle" font-family="'Noto Sans SC', sans-serif" font-size="24" font-weight="600" fill="#221A30" letter-spacing="1">阿遥</text><text x="1728" y="650" text-anchor="end" font-family="'Noto Sans SC', sans-serif" font-size="22" font-weight="600" fill="#B9A8D6">3 / 5</text><text x="200" y="692" font-family="'LXGW WenKai', 'Noto Sans SC', sans-serif" font-size="36" fill="#F6F0FA">明天就要交报告了，我该从<tspan fill="#F3C77A">哪一步</tspan>开始？</text><path d="M1706 766 h28 l-14 16 Z" fill="#F3C77A"/></g><rect width="1920" height="1080" fill="url(#vign)"/><rect width="1920" height="1080" fill="url(#vignx)"/><g fill="none" stroke="#B9A8D6" stroke-opacity="0.35" stroke-width="2"><path d="M48 136v-40h44 M1828 96h44v40 M48 944v40h44 M1828 984h44v-40"/></g></svg>
