<svg xmlns="http://www.w3.org/2000/svg" width="1920" height="1080" viewBox="0 0 1920 1080">
  <defs>
    <pattern id="grid" width="72" height="72" patternUnits="userSpaceOnUse">
      <path d="M 72 0 L 0 0 0 72" fill="none" stroke="#1C2538" stroke-width="1.5"/>
    </pattern>
    <radialGradient id="haloV" cx="0.5" cy="0.5" r="0.5">
      <stop offset="0" stop-color="#A493FF" stop-opacity="0.16"/>
      <stop offset="1" stop-color="#A493FF" stop-opacity="0"/>
    </radialGradient>
    <radialGradient id="haloL" cx="0.5" cy="0.5" r="0.5">
      <stop offset="0" stop-color="#C8F560" stop-opacity="0.10"/>
      <stop offset="1" stop-color="#C8F560" stop-opacity="0"/>
    </radialGradient>
    <linearGradient id="area" x1="0" y1="0" x2="0" y2="1">
      <stop offset="0" stop-color="#C8F560" stop-opacity="0.28"/>
      <stop offset="1" stop-color="#C8F560" stop-opacity="0"/>
    </linearGradient>
    <linearGradient id="fade" x1="0" y1="0" x2="0" y2="1">
      <stop offset="0" stop-color="#070A12" stop-opacity="0"/>
      <stop offset="1" stop-color="#070A12" stop-opacity="0.85"/>
    </linearGradient>
    <filter id="glow" x="-60%" y="-60%" width="220%" height="220%">
      <feGaussianBlur in="SourceGraphic" stdDeviation="14" result="b"/>
      <feComponentTransfer in="b" result="s"><feFuncA type="linear" slope="0.55"/></feComponentTransfer>
      <feMerge><feMergeNode in="s"/><feMergeNode in="SourceGraphic"/></feMerge>
    </filter>
    <filter id="glowDot" x="-400%" y="-400%" width="900%" height="900%">
      <feGaussianBlur in="SourceGraphic" stdDeviation="8" result="b"/>
      <feComponentTransfer in="b" result="s"><feFuncA type="linear" slope="0.7"/></feComponentTransfer>
      <feMerge><feMergeNode in="s"/><feMergeNode in="SourceGraphic"/></feMerge>
    </filter>
  </defs>
  <rect width="1920" height="1080" fill="#070A12"/>
  <rect width="1920" height="1080" fill="url(#grid)" opacity="0.55"/>
  <circle cx="1720" cy="80" r="640" fill="url(#haloV)"/>
  <circle cx="1300" cy="520" r="480" fill="url(#haloL)"/>
  <rect y="880" width="1920" height="200" fill="url(#fade)"/>
  <g fill="none" stroke="#5F6B85" stroke-width="2" opacity="0.7">
    <path d="M48 88v-40h40 M1832 48h40v40 M48 992v40h40 M1832 1032h40v-40"/>
  </g>
  <circle cx="172" cy="130" r="8" fill="#C8F560" filter="url(#glowDot)"/>
  <text x="194" y="140" font-family="'Noto Sans SC', sans-serif" fill="#EEF2FA" font-size="30" font-weight="700" letter-spacing="3">双线对比</text>
  <text x="1760" y="138" text-anchor="end" font-family="'Space Grotesk', 'Noto Sans SC', sans-serif" fill="#9AA6BF" font-size="24" font-weight="500" letter-spacing="4">COMPARISON</text>
  <rect x="160" y="172" width="1600" height="2" fill="#1C2538"/>
  <rect x="160" y="172" width="200" height="2" fill="#C8F560"/>
  <text x="160" y="292" font-family="'Noto Sans SC', sans-serif" fill="#EEF2FA" font-size="56" font-weight="700">开源与闭源模型</text>
  <text x="160" y="364" font-family="'Noto Sans SC', sans-serif" fill="#EEF2FA" font-size="56" font-weight="700">评测差距正在<tspan fill="#C8F560">收窄</tspan></text>
  <circle cx="172" cy="443" r="10" fill="#C8F560"/>
  <text x="192" y="452" font-family="'Noto Sans SC', sans-serif" fill="#EEF2FA" font-size="26" font-weight="600">开源最佳</text>
  <circle cx="336" cy="443" r="10" fill="#A493FF"/>
  <text x="356" y="452" font-family="'Noto Sans SC', sans-serif" fill="#EEF2FA" font-size="26" font-weight="600">闭源最佳</text>
  <rect x="160" y="500" width="264" height="190" rx="16" fill="#0E1422" stroke="#1C2538" stroke-width="1.5"/>
  <text x="190" y="548" font-family="'Noto Sans SC', sans-serif" fill="#9AA6BF" font-size="26" font-weight="600">2022 差距</text>
  <text x="186" y="654" font-family="'Space Grotesk', 'Noto Sans SC', sans-serif" fill="#EEF2FA" font-size="96" font-weight="700">18<tspan dx="8" font-size="34" fill="#9AA6BF" font-weight="500">分</tspan></text>
  <path d="M440 595h40m-12 -12l12 12-12 12" fill="none" stroke="#5F6B85" stroke-width="2.5" stroke-linecap="round" stroke-linejoin="round"/>
  <rect x="496" y="500" width="264" height="190" rx="16" fill="#151D2F" stroke="#1C2538" stroke-width="1.5"/>
  <rect x="496" y="524" width="5" height="142" rx="2.5" fill="#C8F560"/>
  <text x="526" y="548" font-family="'Noto Sans SC', sans-serif" fill="#9AA6BF" font-size="26" font-weight="600">2025 差距</text>
  <text x="522" y="654" font-family="'Space Grotesk', 'Noto Sans SC', sans-serif" fill="#C8F560" font-size="96" font-weight="700">4<tspan dx="8" font-size="34" fill="#9AA6BF" font-weight="500">分</tspan></text>
  <rect x="160" y="730" width="600" height="102" rx="16" fill="#151D2F" stroke="#1C2538" stroke-width="1.5"/>
  <rect x="160" y="749" width="5" height="64" rx="2.5" fill="#C8F560"/>
  <text x="194" y="791" font-family="'Noto Sans SC', sans-serif" fill="#EEF2FA" font-size="28" font-weight="600">差距缩到 4 分，<tspan fill="#9AA6BF" font-weight="400">但还没有归零</tspan></text>
  <rect x="820" y="232" width="940" height="600" rx="24" fill="#0E1422" stroke="#1C2538" stroke-width="1.5"/>
  <rect x="1476" y="256" width="250" height="46" rx="23" fill="#0E1422" stroke="#5F6B85" stroke-width="1.5"/>
  <text x="1601.0" y="287" text-anchor="middle" font-family="'Noto Sans SC', sans-serif" fill="#9AA6BF" font-size="24" font-weight="600">示意 · 综合得分</text>
  <text x="910" y="748.0" text-anchor="end" font-family="'Space Grotesk', 'Noto Sans SC', sans-serif" fill="#9AA6BF" font-size="24" font-weight="500">0</text>
  <line x1="930" y1="640.0" x2="1690" y2="640.0" stroke="#1C2538" stroke-width="1.5" stroke-dasharray="6 8"/>
  <text x="910" y="648.0" text-anchor="end" font-family="'Space Grotesk', 'Noto Sans SC', sans-serif" fill="#9AA6BF" font-size="24" font-weight="500">25</text>
  <line x1="930" y1="540.0" x2="1690" y2="540.0" stroke="#1C2538" stroke-width="1.5" stroke-dasharray="6 8"/>
  <text x="910" y="548.0" text-anchor="end" font-family="'Space Grotesk', 'Noto Sans SC', sans-serif" fill="#9AA6BF" font-size="24" font-weight="500">50</text>
  <line x1="930" y1="440.0" x2="1690" y2="440.0" stroke="#1C2538" stroke-width="1.5" stroke-dasharray="6 8"/>
  <text x="910" y="448.0" text-anchor="end" font-family="'Space Grotesk', 'Noto Sans SC', sans-serif" fill="#9AA6BF" font-size="24" font-weight="500">75</text>
  <line x1="930" y1="340.0" x2="1690" y2="340.0" stroke="#1C2538" stroke-width="1.5" stroke-dasharray="6 8"/>
  <text x="910" y="348.0" text-anchor="end" font-family="'Space Grotesk', 'Noto Sans SC', sans-serif" fill="#9AA6BF" font-size="24" font-weight="500">100</text>
  <line x1="930" y1="740" x2="1690" y2="740" stroke="#5F6B85" stroke-width="2"/>
  <polygon points="930,740 930,532.0 1082,508.0 1234,476.0 1386,440.0 1538,412.0 1690,400.0 1690,740" fill="url(#area)" opacity="0.5"/>
  <polyline points="930,460.0 1082,436.0 1234,420.0 1386,404.0 1538,392.0 1690,384.0" fill="none" stroke="#A493FF" stroke-width="3" stroke-linejoin="round" stroke-linecap="round"/>
  <polyline points="930,532.0 1082,508.0 1234,476.0 1386,440.0 1538,412.0 1690,400.0" fill="none" stroke="#C8F560" stroke-width="4" stroke-linejoin="round" stroke-linecap="round"/>
  <circle cx="930" cy="460.0" r="5" fill="#070A12" stroke="#A493FF" stroke-width="2.5"/>
  <circle cx="1082" cy="436.0" r="5" fill="#070A12" stroke="#A493FF" stroke-width="2.5"/>
  <circle cx="1234" cy="420.0" r="5" fill="#070A12" stroke="#A493FF" stroke-width="2.5"/>
  <circle cx="1386" cy="404.0" r="5" fill="#070A12" stroke="#A493FF" stroke-width="2.5"/>
  <circle cx="1538" cy="392.0" r="5" fill="#070A12" stroke="#A493FF" stroke-width="2.5"/>
  <circle cx="930" cy="532.0" r="5" fill="#070A12" stroke="#C8F560" stroke-width="2.5"/>
  <circle cx="1082" cy="508.0" r="5" fill="#070A12" stroke="#C8F560" stroke-width="2.5"/>
  <circle cx="1234" cy="476.0" r="5" fill="#070A12" stroke="#C8F560" stroke-width="2.5"/>
  <circle cx="1386" cy="440.0" r="5" fill="#070A12" stroke="#C8F560" stroke-width="2.5"/>
  <circle cx="1538" cy="412.0" r="5" fill="#070A12" stroke="#C8F560" stroke-width="2.5"/>
  <circle cx="1690" cy="384.0" r="8" fill="#A493FF"/>
  <circle cx="1690" cy="400.0" r="9" fill="#C8F560" filter="url(#glowDot)"/>
  <path d="M952 460.0h10v72.0h-10" fill="none" stroke="#9AA6BF" stroke-width="2"/>
  <text x="976" y="506" font-family="'Space Grotesk', 'Noto Sans SC', sans-serif" fill="#9AA6BF" font-size="28" font-weight="700">18 分</text>
  <path d="M1712 384.0h8v16.0h-8" fill="none" stroke="#C8F560" stroke-width="2"/>
  <text x="1686" y="354.0" text-anchor="end" font-family="'Space Grotesk', 'Noto Sans SC', sans-serif" fill="#C8F560" font-size="32" font-weight="700">差距 4 分</text>
  <text x="930.0" y="786" text-anchor="start" font-family="'Space Grotesk', 'Noto Sans SC', sans-serif" fill="#9AA6BF" font-size="24" font-weight="500">2022</text>
  <text x="1234.0" y="786" text-anchor="middle" font-family="'Space Grotesk', 'Noto Sans SC', sans-serif" fill="#9AA6BF" font-size="24" font-weight="500">2023</text>
  <text x="1538.0" y="786" text-anchor="middle" font-family="'Space Grotesk', 'Noto Sans SC', sans-serif" fill="#9AA6BF" font-size="24" font-weight="500">2024</text>
  <text x="1690.0" y="786" text-anchor="end" font-family="'Space Grotesk', 'Noto Sans SC', sans-serif" fill="#9AA6BF" font-size="24" font-weight="500">2025</text>
</svg>
